PathFileType	4	(X/Y/Z)	D:\TRACE\v60_Jaco2_6-2-23\BothDRS_Motion1_5-v60.trc
DataRate	CameraRate	NumFrames	NumMarkers	Units	OrigDataRate	OrigDataStartFrame	OrigNumFrames
100.00	100.00	      14	9	mm	100.00	3432	      6863
Frame#	Time	front left toe			Front right toe			aft left toe			aft right toe			Arm			FL body			FR body			AL Body			AR Body			
		X1	Y1	Z1	X2	Y2	Z2	X3	Y3	Z3	X4	Y4	Z4	X5	Y5	Z5	X6	Y6	Z6	X7	Y7	Z7	X8	Y8	Z8	X9	Y9	Z9	

3432	34.310	-190.52182	12.59031	-304.86267	203.54774	125.26048	-356.91534	-102.29873	131.37642	306.07678	246.31319	19.37004	280.69553	45.25140	1099.26868	-697.55450	-82.39148	573.34442	-456.73587	76.69935	569.20587	-474.54108	18.37126	566.23596	483.82239	174.02158	556.11731	468.38712	
3433	34.320	-190.44548	12.63747	-304.83926	205.14514	119.77865	-359.12872	-98.79430	124.73989	305.72366	246.50247	19.37214	280.63364	46.12617	1098.62646	-698.69122	-81.82889	573.23621	-457.11636	77.44437	568.86066	-475.07819	20.31202	566.18921	483.44305	175.62637	556.38855	466.99231	
3434	34.330	-190.35693	12.59472	-304.88919	207.58142	113.53170	-361.76511	-96.39749	118.33687	304.90518	246.67049	19.36168	280.36063	47.09578	1097.83142	-699.37537	-81.89461	573.02563	-457.75519	77.42130	568.38135	-475.41052	21.87016	566.66455	482.58673	177.34850	556.55524	465.80420	
3435	34.340	-190.13857	12.26177	-304.91751	209.24652	106.81036	-364.25131	-93.78000	111.26852	303.41296	246.93076	19.40700	280.15781	47.51928	1096.87634	-700.98889	-81.30722	572.32062	-458.27090	78.00047	567.95898	-476.60602	23.83809	566.91772	481.93823	179.37442	556.87225	464.98123	
3436	34.350	-190.06732	11.94963	-304.94003	211.62541	99.26992	-366.52734	-90.28295	102.94862	301.80048	247.20583	19.37868	279.90054	48.12653	1096.19702	-702.13330	-80.67771	571.57715	-459.02222	78.37928	567.19135	-477.16354	25.59383	567.24219	481.05054	180.94319	556.87329	464.01477	
3437	34.360	-189.91789	11.73416	-304.94089	213.27933	91.34672	-369.16260	-87.22680	94.68213	299.79282	247.47495	19.39860	279.86035	48.60482	1095.28784	-703.17651	-80.03118	571.22034	-459.50919	79.37808	566.66077	-478.21350	27.53173	567.41003	480.39169	183.24448	557.17535	463.19534	
3438	34.370	-189.89925	11.62538	-304.93872	214.65265	83.07416	-371.45483	-84.03547	86.68370	297.43033	247.48868	19.36432	279.79584	49.10432	1094.67651	-704.30786	-79.36723	570.91895	-460.54080	80.06738	566.33734	-479.48715	29.87535	567.61371	479.55228	185.23598	557.35602	462.44580	
3439	34.380	-189.82446	11.48668	-304.97562	216.34576	74.92761	-373.57629	-80.69242	78.53172	294.92886	247.48256	19.30192	279.65463	48.90945	1093.91833	-705.42432	-78.71786	570.52704	-461.33331	80.81333	565.72101	-480.05392	31.63252	567.60352	478.61438	186.92007	557.60760	460.70621	
3440	34.390	-189.66251	11.14915	-305.04288	217.91698	66.85914	-375.79272	-78.03677	69.94102	293.02200	247.50766	19.33359	279.42560	49.65634	1092.85657	-706.64154	-78.35587	570.21234	-462.29208	81.25100	565.79950	-481.88071	33.61746	567.78040	477.27597	189.03006	557.69897	459.58282	
3441	34.400	-189.46014	10.79494	-305.06122	220.22734	58.88093	-377.95618	-75.37859	61.30027	291.18976	247.48929	19.36491	279.29398	50.07340	1092.22778	-707.82336	-77.77606	569.91241	-463.36209	81.60266	565.11517	-482.35498	35.44139	567.48950	475.93637	190.71036	557.43121	458.07550	
3442	34.410	-189.28932	10.61335	-305.22577	222.63237	51.16987	-380.09521	-72.85522	52.52963	289.64035	247.55864	19.29926	279.08621	50.44159	1091.43372	-708.68604	-76.80901	569.45831	-464.31006	82.01049	565.01819	-483.88107	37.38586	567.60052	474.96399	192.86790	557.56293	456.47421	
3443	34.420	-189.22795	10.60896	-305.33701	224.71681	43.99054	-382.24042	-70.16229	44.83404	288.18176	247.66214	19.20431	278.91513	50.65488	1090.95740	-710.19055	-76.16290	569.30463	-465.59003	82.60271	564.92877	-485.23035	39.53536	567.64368	473.59711	195.15271	557.51404	454.93039	
3444	34.430	-189.22849	10.66897	-305.41183	226.50313	37.16495	-384.20013	-67.82086	37.52958	286.37100	247.67867	19.02879	278.56064	51.06112	1090.71326	-711.01807	-75.81535	569.19946	-466.82050	83.42421	564.76239	-486.77853	41.37538	567.24207	471.95151	197.28391	557.47498	453.21155	
3445	34.440	-189.17130	10.54020	-305.35938	228.12619	30.61846	-386.35556	-65.61613	31.14337	284.34692	247.70830	18.91105	278.40845	51.45215	1090.35681	-712.17523	-74.96114	568.92023	-468.20581	84.55985	564.81482	-488.81573	43.77527	567.14142	470.32797	199.38858	557.23938	451.44073	
